<svg width="40" height="40" viewBox="0 0 40 40" fill="none" xmlns="http://www.w3.org/2000/svg">
<rect width="40" height="40" rx="20" fill="#F13005"/>
<path d="M25.2504 29H23.7505C23.5516 29 23.3608 28.921 23.2202 28.7803C23.0795 28.6397 23.0005 28.4489 23.0005 28.25C23.0005 28.0511 23.0795 27.8603 23.2202 27.7197C23.3608 27.579 23.5516 27.5 23.7505 27.5H25.2504C25.8472 27.5 26.4195 27.263 26.8414 26.841C27.2634 26.4191 27.5004 25.8468 27.5004 25.2501V23.7501C27.5004 23.5512 27.5794 23.3604 27.7201 23.2198C27.8607 23.0791 28.0515 23.0001 28.2504 23.0001C28.4493 23.0001 28.6401 23.0791 28.7807 23.2198C28.9214 23.3604 29.0004 23.5512 29.0004 23.7501V25.2501C28.9992 26.2443 28.6037 27.1974 27.9007 27.9004C27.1977 28.6034 26.2446 28.9988 25.2504 29Z" fill="white"/>
<path d="M11.75 16.9999C11.5511 16.9999 11.3603 16.9209 11.2197 16.7802C11.079 16.6396 11 16.4488 11 16.2499V14.7499C11.0012 13.7557 11.3967 12.8026 12.0996 12.0996C12.8026 11.3967 13.7557 11.0012 14.7499 11H16.2499C16.4488 11 16.6396 11.079 16.7802 11.2197C16.9209 11.3603 16.9999 11.5511 16.9999 11.75C16.9999 11.9489 16.9209 12.1397 16.7802 12.2803C16.6396 12.421 16.4488 12.5 16.2499 12.5H14.7499C14.1532 12.5 13.5809 12.737 13.159 13.159C12.737 13.5809 12.5 14.1532 12.5 14.7499V16.2499C12.5 16.4488 12.421 16.6396 12.2803 16.7802C12.1397 16.9209 11.9489 16.9999 11.75 16.9999Z" fill="white"/>
<path d="M16.2499 29H14.7499C13.7557 28.9988 12.8026 28.6034 12.0996 27.9004C11.3967 27.1974 11.0012 26.2443 11 25.2501V23.7501C11 23.5512 11.079 23.3604 11.2197 23.2198C11.3603 23.0791 11.5511 23.0001 11.75 23.0001C11.9489 23.0001 12.1397 23.0791 12.2803 23.2198C12.421 23.3604 12.5 23.5512 12.5 23.7501V25.2501C12.5 25.8468 12.737 26.4191 13.159 26.841C13.5809 27.263 14.1532 27.5 14.7499 27.5H16.2499C16.4488 27.5 16.6396 27.579 16.7802 27.7197C16.9209 27.8603 16.9999 28.0511 16.9999 28.25C16.9999 28.4489 16.9209 28.6397 16.7802 28.7803C16.6396 28.921 16.4488 29 16.2499 29Z" fill="white"/>
<path d="M28.2504 17C28.0515 17 27.8607 16.921 27.7201 16.7803C27.5794 16.6397 27.5004 16.4489 27.5004 16.25V14.75C27.5004 14.1533 27.2634 13.581 26.8414 13.1591C26.4195 12.7371 25.8472 12.5001 25.2504 12.5001H23.7505C23.5516 12.5001 23.3608 12.4211 23.2202 12.2804C23.0795 12.1398 23.0005 11.949 23.0005 11.7501C23.0005 11.5512 23.0795 11.3604 23.2202 11.2198C23.3608 11.0791 23.5516 11.0001 23.7505 11.0001H25.2504C26.2446 11.0013 27.1977 11.3968 27.9007 12.0998C28.6037 12.8028 28.9992 13.7559 29.0004 14.75V16.25C29.0004 16.4489 28.9214 16.6397 28.7807 16.7803C28.6401 16.921 28.4493 17 28.2504 17Z" fill="white"/>
<rect x="13.7002" y="19.1002" width="12.5998" height="1.79996" rx="0.899982" fill="white"/>
</svg>
